<svg width="70" height="62" viewBox="0 0 70 62" fill="none" xmlns="http://www.w3.org/2000/svg">
<path d="M58.6194 30.5535C58.6194 30.8724 58.6194 31.3827 58.6194 31.8292V31.893C58.6194 32.0844 58.6194 32.2119 58.6194 32.3395C58.6194 32.5309 58.6194 32.7222 58.6194 32.9136C58.4918 37.6975 57.7902 41.9074 56.5782 45.4156C55.3663 48.9877 53.7079 51.9218 51.4754 54.2819C49.4342 56.4506 47.0741 58.1091 44.2675 59.3848C41.4609 60.5967 38.3354 61.4259 34.6996 61.7449H34.6358C33.4239 61.8724 32.1482 61.9362 30.8087 61.9362H27.8107C23.2181 61.9362 19.1996 61.2984 15.819 60.0226C12.3745 58.7469 9.50412 56.8971 7.14404 54.3457C4.78396 51.858 2.99797 48.6687 1.78604 44.8416C0.574105 40.9506 0 36.4218 0 31.1276C0 25.8333 0.637891 21.177 1.78604 17.286C2.99797 13.3951 4.78396 10.2058 7.14404 7.65432C9.50412 5.10288 12.3745 3.1893 15.819 1.91358C18.9445 0.765432 22.5165 0.127572 26.535 0C25.8971 0.255144 25.1955 0.510286 24.6214 0.76543C21.6235 2.10494 19.0082 3.89095 16.8395 6.25103C14.3519 8.86626 12.4383 12.1831 11.1626 16.1379C9.88683 20.0926 9.24899 24.6214 9.1852 29.7881C9.1852 30.107 9.1852 30.4259 9.1852 30.8086C9.1852 31.1914 9.1852 31.5103 9.1852 31.8292C9.24899 34.5082 9.50414 36.9321 9.95064 39.1008C10.142 39.93 10.3333 40.7593 10.5247 41.5247C11.2263 43.8848 12.2469 45.9259 13.6502 47.4568C15.1173 49.179 17.0947 50.5185 19.5185 51.3477C20.6029 51.7304 21.8148 52.0494 23.0905 52.2407C23.1543 52.2407 23.2819 52.3045 23.3457 52.3045C23.4095 52.3045 23.4733 52.3045 23.5371 52.3045C24.8766 52.4959 26.2799 52.6235 27.8107 52.6235H30.8087C31.1914 52.6235 31.5741 52.6235 31.893 52.6235C32.9774 52.6235 34.0617 52.4959 35.0185 52.3683C37.1235 52.0494 39.0371 51.5391 40.6955 50.7099C42.3539 49.8807 43.7572 48.7963 44.9691 47.4568C46.5 45.7346 47.5844 43.4383 48.3498 40.6955C49.0515 37.9527 49.4342 34.6996 49.4342 31C49.4342 27.3004 49.1153 24.0473 48.3498 21.3045C47.6482 18.5617 46.5638 16.2654 45.0329 14.4794C43.8848 13.1399 42.4815 12.0556 40.823 11.2263C40.7593 11.2263 40.6955 11.1626 40.6317 11.1626H41.9712C43.4383 11.1626 44.8416 11.2901 46.1173 11.4177C46.1811 11.4177 46.1811 11.4177 46.2449 11.4177C46.3086 11.4177 46.4362 11.4815 46.5 11.4815C46.6914 11.5453 46.8827 11.5453 47.1379 11.6091C47.2654 11.6091 47.393 11.6728 47.5206 11.6728C47.5844 11.6728 47.5844 11.6728 47.6482 11.6728H47.712C47.7757 11.6728 47.8395 11.6728 47.9033 11.7366C48.0308 11.7366 48.1584 11.8004 48.2222 11.8004C48.5411 11.8642 48.7963 11.9918 49.1152 12.0556C49.179 12.0556 49.2428 12.1193 49.3066 12.1193C49.498 12.1831 49.6893 12.2469 49.8807 12.3107C51.9856 13.0761 53.644 14.2243 54.9197 15.6914C56.1317 17.1584 57.0885 19.072 57.7901 21.4321C57.9177 21.9424 58.1091 22.5165 58.2367 23.1543C58.5556 24.8128 58.7469 26.6625 58.8745 28.7037C58.8745 28.8951 58.8745 29.0864 58.8745 29.2778C58.8745 29.4053 58.8745 29.5329 58.8745 29.7243C58.6194 30.0432 58.6194 30.2346 58.6194 30.5535Z" fill="url(#paint0_linear_202_176)"/>
<path d="M69.7819 30.8725C69.7819 36.1667 69.144 40.8231 67.9958 44.714C66.7839 48.605 64.998 51.7943 62.6379 54.3457C60.2778 56.8972 57.4074 58.8107 53.9629 60.0865C50.8374 61.2346 47.2016 61.8725 43.1193 62C43.8209 61.7449 44.4588 61.4898 45.1605 61.1708C48.1584 59.8313 50.7736 57.9815 52.9423 55.6214C55.3662 53.07 57.216 49.8169 58.4279 46.0535C59.7036 42.2902 60.4053 37.9527 60.5329 32.9774C60.5329 32.7861 60.5329 32.5947 60.5329 32.3396C60.5329 32.1482 60.5329 32.0206 60.5329 31.8931V31.7655C60.5329 31.319 60.5329 30.8087 60.5329 30.4898C60.5329 30.1708 60.5329 30.0433 60.5329 29.8519C60.5329 29.7243 60.5329 29.533 60.5329 29.4054C60.5329 29.214 60.5329 28.9589 60.5329 28.8313C60.4053 25.642 60.0226 22.8992 59.2572 20.4754C58.5555 18.1153 57.5349 16.0741 56.1316 14.5433C54.6646 12.821 52.6872 11.4815 50.2634 10.6523C47.9033 9.82309 45.0967 9.37659 41.9074 9.37659H38.9094C37.4423 9.37659 36.0391 9.44038 34.7633 9.63173C32.6584 9.95066 30.7448 10.4609 29.0864 11.2902C27.428 12.1194 26.0247 13.2038 24.8127 14.5433C23.2819 16.2655 22.1975 18.5618 21.4321 21.3046C20.7304 24.0474 20.3477 27.3005 20.3477 31.0001C20.3477 34.6996 20.6667 37.9527 21.4321 40.6955C22.1337 43.4383 23.2181 45.7346 24.749 47.5206C25.8971 48.8601 27.3004 49.9445 28.9588 50.7737C29.0226 50.7737 29.0864 50.8375 29.1502 50.8375H27.7469C24.7489 50.8375 22.1975 50.4548 20.0926 49.6893C17.9876 48.9239 16.3292 47.7758 15.0535 46.3087C13.8415 44.8416 12.8848 42.928 12.1831 40.568C11.4815 38.1441 11.0988 35.2737 11.035 31.9568C11.035 31.6379 11.035 31.319 11.035 31.0001C11.035 30.6811 11.035 30.3622 11.035 30.0433C11.0988 25.0042 11.7366 20.6667 12.9486 16.9671C14.1605 13.2675 15.8827 10.2058 18.179 7.78194C20.2201 5.677 22.5802 3.95478 25.3868 2.74285C28.1934 1.53091 31.3189 0.701691 34.9547 0.382761C36.2304 0.255189 37.5699 0.191406 38.9094 0.191406H41.9074C46.5 0.191406 50.5185 0.829266 53.8991 2.10499C57.3436 3.38071 60.2139 5.2305 62.574 7.78194C63.7222 9.05766 64.8065 10.461 65.6996 12.0556C66.5926 13.6503 67.358 15.3725 67.9321 17.3498C69.2078 21.0494 69.7819 25.5782 69.7819 30.8725Z" fill="url(#paint1_linear_202_176)"/>
<defs>
<linearGradient id="paint0_linear_202_176" x1="29.4373" y1="53" x2="29.4373" y2="-3.5" gradientUnits="userSpaceOnUse">
<stop stop-color="#003882"/>
<stop offset="1" stop-color="#003882" stop-opacity="0"/>
</linearGradient>
<linearGradient id="paint1_linear_202_176" x1="40.4084" y1="8.5" x2="40.4084" y2="62" gradientUnits="userSpaceOnUse">
<stop stop-color="#003882"/>
<stop offset="1" stop-color="#003882" stop-opacity="0"/>
</linearGradient>
</defs>
</svg>
