<svg xmlns="http://www.w3.org/2000/svg" xmlns:xlink="http://www.w3.org/1999/xlink"><defs><symbol viewBox="0 0 26 9" fill="none" id="arrow-button">
<path d="M19.9899 4.5L-1.14441e-05 4.5" stroke="white" />
<path d="M26 4.5L19.25 8.39711L19.25 0.602886L26 4.5Z" fill="white" />
</symbol><symbol viewBox="0 0 26 9" fill="none" id="arrow-button-blue">
<path d="M19.9899 4.5L-1.14441e-05 4.5" stroke="#003882" />
<path d="M26 4.5L19.25 8.39711L19.25 0.602886L26 4.5Z" fill="#003882" />
</symbol><symbol viewBox="0 0 30 30" fill="none" id="facebook">
<path d="M26.25 0H3.75C1.68187 0 0 1.68187 0 3.75V26.25C0 28.3181 1.68187 30 3.75 30H26.25C28.3181 30 30 28.3181 30 26.25V3.75C30 1.68187 28.3181 0 26.25 0Z" fill="#7F9BC0" />
<path d="M25.3125 15H20.625V11.25C20.625 10.215 21.465 10.3125 22.5 10.3125H24.375V5.625H20.625C17.5181 5.625 15 8.14313 15 11.25V15H11.25V19.6875H15V30H20.625V19.6875H23.4375L25.3125 15Z" fill="#003882" />
</symbol><symbol viewBox="0 0 30 30" fill="none" id="linkedin">
<path d="M27.2863 0H2.71374C1.215 0 0 1.215 0 2.71374V27.2862C0 28.785 1.215 30 2.71374 30H27.2862C28.785 30 30 28.785 30 27.2862V2.71374C30 1.215 28.785 0 27.2863 0ZM9.28327 25.904C9.28327 26.3402 8.92971 26.6937 8.49353 26.6937H5.13181C4.69563 26.6937 4.34207 26.3402 4.34207 25.904V11.8118C4.34207 11.3756 4.69563 11.022 5.13181 11.022H8.49353C8.92971 11.022 9.28327 11.3756 9.28327 11.8118V25.904ZM6.81267 9.69361C5.04887 9.69361 3.61901 8.26374 3.61901 6.49995C3.61901 4.73615 5.04887 3.30628 6.81267 3.30628C8.57647 3.30628 10.0063 4.73615 10.0063 6.49995C10.0063 8.26374 8.57654 9.69361 6.81267 9.69361ZM26.8516 25.9676C26.8516 26.3686 26.5264 26.6937 26.1254 26.6937H22.5181C22.1171 26.6937 21.7919 26.3686 21.7919 25.9676V19.3575C21.7919 18.3715 22.0812 15.0365 19.215 15.0365C16.9918 15.0365 16.5408 17.3192 16.4503 18.3436V25.9676C16.4503 26.3686 16.1252 26.6937 15.7242 26.6937H12.2352C11.8342 26.6937 11.5091 26.3686 11.5091 25.9676V11.7481C11.5091 11.3471 11.8342 11.022 12.2352 11.022H15.7242C16.1252 11.022 16.4503 11.3471 16.4503 11.7481V12.9776C17.2747 11.7404 18.4998 10.7855 21.1083 10.7855C26.8846 10.7855 26.8516 16.1821 26.8516 19.1472V25.9676Z" fill="#7F9BC0" />
</symbol><symbol fill="none" viewBox="0 0 18 18" id="search">
<path d="M13 7C13 10.3137 10.3137 13 7 13C3.68629 13 1 10.3137 1 7C1 3.68629 3.68629 1 7 1C10.3137 1 13 3.68629 13 7Z" stroke="#003382" stroke-width="2" />
<rect x="10" y="11.4142" width="2" height="8" rx="1" transform="rotate(-45 10 11.4142)" fill="#003382" />
</symbol><symbol viewBox="0 0 141 27" fill="none" id="slider-arrow-next">
<path d="M124 13.981L0 13.981" stroke="white" stroke-width="2" />
<path d="M119 2.72277L138.5 13.9811L119 25.2394L119 2.72277Z" fill="white" stroke="white" stroke-width="2" />
</symbol><symbol viewBox="0 0 141 26" fill="none" id="slider-arrow-prev">
<path fill-rule="evenodd" clip-rule="evenodd" d="M22.5 13.9905L141 14L141 12L22.5 11.9905L22.5 2.3094L22.5 -5.1798e-06L20.5 1.15469L1.99998 11.8357L-1.58266e-05 12.9904L1.99998 14.1451L20.5 24.8261L22.5 25.9808L22.5 23.6714L22.5 13.9905ZM20.5 22.5167L3.99998 12.9904L20.5 3.4641L20.5 22.5167Z" fill="white" fill-opacity="0.8" />
</symbol><symbol viewBox="0 0 40 40" fill="none" id="youtube">
<path d="M23.1063 25.6058C23.1054 25.4566 23.0616 25.3013 23.0063 25.1617C22.9325 24.9783 22.7745 24.887 22.5762 24.8677C22.3436 24.8448 22.1575 24.9388 21.989 25.088C21.9214 25.1468 21.8907 25.2346 21.8907 25.2346L21.8942 29.9716V30.0883C21.8942 30.0883 21.9346 30.1427 21.9407 30.1497C22.0776 30.2981 22.2374 30.4157 22.4419 30.4578C22.7789 30.5271 23.0168 30.3867 23.0826 30.0743C23.0993 29.9961 23.1089 29.9154 23.1089 29.8355C23.1107 28.425 23.1133 27.0154 23.1063 25.6058ZM23.1063 25.6058C23.1054 25.4566 23.0616 25.3013 23.0063 25.1617C22.9325 24.9783 22.7745 24.887 22.5762 24.8677C22.3436 24.8448 22.1575 24.9388 21.989 25.088C21.9214 25.1468 21.8907 25.2346 21.8907 25.2346L21.8942 29.9716V30.0883C21.8942 30.0883 21.9346 30.1427 21.9407 30.1497C22.0776 30.2981 22.2374 30.4157 22.4419 30.4578C22.7789 30.5271 23.0168 30.3867 23.0826 30.0743C23.0993 29.9961 23.1089 29.9154 23.1089 29.8355C23.1107 28.425 23.1133 27.0154 23.1063 25.6058ZM28.4103 18.4621C22.8044 18.3419 17.1958 18.3419 11.589 18.4621C9.64399 18.5034 8.08868 20.0938 8.08868 22.0397V30.7957C8.08868 32.7425 9.64399 34.3329 11.589 34.3742C17.1958 34.4944 22.8044 34.4944 28.4103 34.3742C30.3562 34.3329 31.9115 32.7425 31.9115 30.7957V22.0397C31.9115 20.0939 30.3562 18.5034 28.4103 18.4621ZM13.2356 31.5937H11.6188V22.4541H9.94504V20.9251H14.9129V22.4505H13.2356V31.5937ZM19.0214 27.8001V31.5944H17.5899V30.7273C17.5381 30.7826 17.5092 30.8124 17.4819 30.8431C17.1739 31.1907 16.8245 31.4803 16.3787 31.6339C16.161 31.7085 15.9372 31.734 15.7081 31.6945C15.3956 31.6427 15.1859 31.4628 15.0595 31.1784C14.9418 30.916 14.912 30.6351 14.9111 30.3525C14.9076 29.308 14.9094 23.7802 14.9094 23.7266H16.3374C16.34 23.7749 16.3453 27.743 16.3462 29.6784C16.3462 29.7837 16.3471 29.8917 16.3681 29.9944C16.4208 30.2542 16.62 30.3657 16.8702 30.2744C17.1581 30.169 17.3775 29.9707 17.5618 29.7328C17.589 29.6986 17.589 29.6371 17.589 29.588V23.7179L19.0214 23.7144C19.0214 23.7144 19.0214 26.4853 19.0214 27.8001ZM24.4676 30.8361C24.2763 31.4119 23.855 31.705 23.2494 31.6989C22.757 31.6945 22.3576 31.4988 22.0285 31.1415C21.9916 31.102 21.8898 30.9941 21.8898 30.9941V31.5927H20.4556V20.9241H21.8898C21.8898 22.0599 21.8898 24.4358 21.8898 24.4358C21.8898 24.4358 21.9706 24.2743 22.0443 24.191C22.2663 23.9426 22.5367 23.7503 22.8702 23.6661C23.4205 23.5283 24.0551 23.6986 24.3571 24.3419C24.5352 24.722 24.5853 25.1275 24.5853 25.54C24.5879 27.0312 24.5879 28.5225 24.5861 30.0137C24.5853 30.2928 24.5563 30.5685 24.4676 30.8361ZM29.7646 30.536C29.5162 31.2636 29.0028 31.6674 28.2497 31.778C27.7828 31.8464 27.3202 31.8368 26.8822 31.6384C26.2827 31.3681 25.9431 30.8792 25.7974 30.2569C25.7298 29.9673 25.6964 29.6636 25.6929 29.366C25.6815 28.1978 25.6868 27.0287 25.6894 25.8604C25.6903 25.2496 25.836 24.6861 26.2547 24.2182C26.7321 23.6837 27.343 23.4845 28.0408 23.5292C28.2506 23.5424 28.4647 23.5766 28.664 23.6425C29.3425 23.8654 29.7049 24.3736 29.8471 25.0477C29.9016 25.3075 29.9217 25.5769 29.9261 25.8429C29.9375 26.4661 29.9217 27.8397 29.9217 27.8397H27.1754V29.8084C27.1754 30.1621 27.4615 30.4482 27.8152 30.4482C28.1681 30.4482 28.4542 30.1621 28.4542 29.8084V28.7964H29.9296C29.9296 28.7963 29.9516 29.991 29.7646 30.536ZM28.4542 25.5138C28.4542 25.1609 28.1681 24.8739 27.8152 24.8739C27.4615 24.8739 27.1754 25.1609 27.1754 25.5138V26.6188H28.4542V25.5138ZM23.0063 25.1618C22.9325 24.9783 22.7745 24.8871 22.5762 24.8678C22.3436 24.8449 22.1575 24.9388 21.989 25.0881C21.9214 25.1469 21.8907 25.2346 21.8907 25.2346L21.8942 29.9716V30.0884C21.8942 30.0884 21.9346 30.1428 21.9407 30.1498C22.0776 30.2982 22.2374 30.4158 22.4419 30.4579C22.7789 30.5272 23.0168 30.3868 23.0826 30.0743C23.0993 29.9962 23.1089 29.9155 23.1089 29.8356C23.1107 28.4251 23.1133 27.0155 23.1063 25.6059C23.1054 25.4566 23.0616 25.3013 23.0063 25.1618Z" fill="white" fill-opacity="0.5" />
<path d="M26.6722 8.33728L26.6717 16.2581H25.204L25.2058 15.4072C25.0435 15.567 24.905 15.7163 24.7528 15.8504C24.483 16.0881 24.1774 16.2653 23.8199 16.3352C23.271 16.4426 22.8036 16.2691 22.6285 15.7007C22.5703 15.5113 22.5351 15.3073 22.5336 15.1096V8.33728H23.9902V14.3778C23.9902 14.4578 23.9966 14.5387 24.0107 14.6172C24.0549 14.8661 24.2389 14.9833 24.4786 14.9002C24.7708 14.7991 24.9937 14.5968 25.1829 14.3584C25.2097 14.3243 25.2049 14.2608 25.2049 14.2108V8.33728H26.6722Z" fill="white" fill-opacity="0.5" />
<path d="M14.5326 9.71372C14.214 8.37074 13.5465 5.53564 13.5465 5.53564H11.8763C11.8763 5.53564 13.1596 9.7914 13.7334 11.6894C13.754 11.758 13.7635 11.8325 13.7635 11.9044L13.7629 16.2564H15.303L15.3024 11.9044C15.3024 11.8325 15.3119 11.758 15.3325 11.6894C15.9064 9.7914 17.1896 5.53564 17.1896 5.53564H15.5194C15.5194 5.53564 14.8518 8.37074 14.5333 9.71372H14.5326Z" fill="white" fill-opacity="0.5" />
<path d="M19.1997 8.13904C18.0391 8.13904 17.0981 9.07994 17.0981 10.2406V14.3535C17.0981 15.5142 18.0391 16.4551 19.1997 16.4551C20.3604 16.4551 21.3013 15.5142 21.3013 14.3535V10.2406C21.3014 9.07994 20.3604 8.13904 19.1997 8.13904ZM19.8062 14.4365C19.8062 14.7709 19.5341 15.0429 19.1998 15.0429C18.8655 15.0429 18.5934 14.7709 18.5934 14.4365V10.1575C18.5934 9.8231 18.8655 9.5511 19.1998 9.5511C19.5341 9.5511 19.8062 9.82319 19.8062 10.1575V14.4365Z" fill="white" fill-opacity="0.5" />
</symbol></defs></svg>